<?xml version="1.0" encoding="UTF-8" standalone="no"?><!DOCTYPE svg PUBLIC "-//W3C//DTD SVG 1.1//EN" "http://www.w3.org/Graphics/SVG/1.1/DTD/svg11.dtd"><svg width="100%" height="100%" viewBox="0 0 2167 2167" version="1.1" xmlns="http://www.w3.org/2000/svg" xmlns:xlink="http://www.w3.org/1999/xlink" xml:space="preserve" xmlns:serif="http://www.serif.com/" style="fill-rule:evenodd;clip-rule:evenodd;stroke-linecap:round;stroke-linejoin:round;stroke-miterlimit:1.5;"><g id="icon"><path id="bkgrnd" d="M2166.67,342.807l-0,1481.05c-0,189.2 -153.607,342.807 -342.807,342.807l-1481.05,-0c-189.2,-0 -342.807,-153.607 -342.807,-342.807l0,-1481.05c0,-189.2 153.607,-342.807 342.807,-342.807l1481.05,-0c189.2,-0 342.807,153.607 342.807,342.807Z" style="fill:#113a67;"/><g id="wallet"><path id="wallet-back" d="M1720.83,657.443l0,1057.73c0,70.456 -57.201,127.657 -127.657,127.657l-1128.02,0c-70.456,0 -127.657,-57.201 -127.657,-127.657l0,-942.23c0,-104.006 84.44,-188.446 188.446,-188.446l1121.94,-0c40.261,-0 72.947,32.686 72.947,72.947Z" style="fill:#1a5aa0;stroke:#2c79c3;stroke-width:83.33px;"/><g id="cc"><path id="cc1" serif:id="cc" d="M1432.77,243.674l209.435,493.396c24.712,58.219 -2.491,125.548 -60.709,150.261l-826.19,350.696c-58.218,24.713 -125.548,-2.49 -150.26,-60.709l-209.435,-493.397c-24.712,-58.218 2.491,-125.548 60.709,-150.26l826.19,-350.697c58.219,-24.712 125.548,2.491 150.26,60.71Z" style="fill:#80bae5;"/><g id="logo"><path id="logo1" serif:id="logo" d="M1366.5,286.214l91.233,214.933c10.765,25.361 -1.085,54.691 -26.446,65.456l-214.933,91.234c-25.361,10.765 -54.691,-1.085 -65.456,-26.446l-91.233,-214.933c-10.766,-25.361 1.085,-54.691 26.446,-65.456l214.932,-91.234c25.361,-10.765 54.691,1.085 65.457,26.446Z" style="fill:#2f75b8;"/><path id="dot" d="M1378.08,453.063l16.516,38.91c4.428,10.431 -0.446,22.494 -10.877,26.922l-38.91,16.516c-10.431,4.428 -22.494,-0.446 -26.921,-10.877l-16.517,-38.91c-4.427,-10.431 0.446,-22.494 10.877,-26.921l38.91,-16.517c10.431,-4.427 22.494,0.446 26.922,10.877Z" style="fill:#54a4e0;"/><path id="dot1" serif:id="dot" d="M1249.55,507.622l16.517,38.91c4.427,10.431 -0.447,22.494 -10.877,26.921l-38.911,16.517c-10.43,4.427 -22.494,-0.446 -26.921,-10.877l-16.517,-38.91c-4.427,-10.431 0.447,-22.494 10.877,-26.922l38.911,-16.516c10.43,-4.428 22.494,0.446 26.921,10.877Z" style="fill:#54a4e0;"/><path id="dot2" serif:id="dot" d="M1324.36,326.494l16.517,38.91c4.427,10.431 -0.446,22.494 -10.877,26.922l-38.91,16.516c-10.431,4.428 -22.494,-0.446 -26.922,-10.877l-16.516,-38.91c-4.428,-10.431 0.446,-22.494 10.877,-26.922l38.91,-16.516c10.431,-4.428 22.494,0.446 26.921,10.877Z" style="fill:#54a4e0;"/><path id="dot3" serif:id="dot" d="M1195.82,381.052l16.516,38.91c4.428,10.431 -0.446,22.494 -10.877,26.922l-38.91,16.516c-10.431,4.428 -22.494,-0.446 -26.922,-10.877l-16.516,-38.91c-4.428,-10.431 0.446,-22.494 10.877,-26.921l38.91,-16.517c10.431,-4.427 22.494,0.446 26.922,10.877Z" style="fill:#54a4e0;"/></g><path id="foto" d="M861.973,513.929l188.932,445.096c13.457,31.701 -1.356,68.364 -33.057,81.82l-268.666,114.042c-31.702,13.457 -68.364,-1.356 -81.821,-33.057l-188.932,-445.096c-13.456,-31.702 1.357,-68.364 33.058,-81.821l268.666,-114.041c31.701,-13.457 68.364,1.356 81.82,33.057Z" style="fill:#4a95d5;"/><clipPath id="_clip1"><path d="M861.973,513.929l188.932,445.096c13.457,31.701 -1.356,68.364 -33.057,81.82l-268.666,114.042c-31.702,13.457 -68.364,-1.356 -81.821,-33.057l-188.932,-445.096c-13.456,-31.702 1.357,-68.364 33.058,-81.821l268.666,-114.041c31.701,-13.457 68.364,1.356 81.82,33.057Z"/></clipPath><g clip-path="url(#_clip1)"><path d="M676.281,615.609c42.337,-17.971 91.299,1.811 109.27,44.148c17.971,42.336 -1.811,91.298 -44.148,109.269c-42.336,17.971 -91.299,-1.811 -109.269,-44.147c-17.971,-42.337 1.811,-91.299 44.147,-109.27Z" style="fill:#80bae5;"/><path d="M966.596,1004.02l-212.582,90.236c-22.135,-22.197 -40.696,-50.156 -53.816,-81.066c-41.254,-97.188 -19.751,-199.436 47.987,-228.189c67.739,-28.754 156.227,26.806 197.481,123.994c13.12,30.91 20.339,63.683 20.93,95.025Z" style="fill:#80bae5;"/></g><path id="brand" d="M1524.37,658.135l15.966,37.613c1.884,4.438 -0.19,9.571 -4.628,11.455l-290.752,123.417c-4.438,1.884 -9.571,-0.19 -11.455,-4.628l-15.966,-37.614c-1.883,-4.438 0.19,-9.57 4.629,-11.454l290.752,-123.417c4.438,-1.884 9.571,0.19 11.454,4.628Z" style="fill:#3585cc;"/></g><path id="wallet-front" d="M1875,1014.93l-0,769.565c-0,55.191 -44.808,100 -100,100l-1341.67,-0c-55.191,-0 -100,-44.809 -100,-100l0,-900l1411.23,-0c71.989,-0 130.435,58.446 130.435,130.435Z" style="fill:#2d7cc7;"/><path d="M1875,1014.93l-0,769.565c-0,55.191 -44.808,100 -100,100l-1341.67,-0c-55.191,-0 -100,-44.809 -100,-100l0,-900l1411.23,-0c71.989,-0 130.435,58.446 130.435,130.435Zm-83.333,-0.001c-0,-25.995 -21.106,-47.101 -47.102,-47.101l-1327.9,0l-0,816.667c-0,9.198 7.468,16.666 16.666,16.666l1341.67,0c9.199,0 16.667,-7.468 16.667,-16.666l-0,-769.566Z" style="fill:#50a2df;"/><path id="wallet-front1" serif:id="wallet-front" d="M1791.67,1059.5l-0,758.575c-0,36.661 -29.764,66.425 -66.425,66.425l-1300.24,-0c-50.592,-0 -91.667,-41.075 -91.667,-91.667l0,-825l1366.67,0c50.592,0 91.667,41.075 91.667,91.667Z" style="fill:#2d7cc7;"/></g><path d="M337.5,814.839l0,335.161" style="fill:none;stroke:#2d7cc7;stroke-width:83.33px;"/><path d="M379.107,780.851c7.18,28.149 26.77,60.39 57.55,81.387c30.781,20.998 67.946,27.473 96.774,23.888c-36.08,52.891 -99.948,72.245 -142.535,43.194c-42.587,-29.052 -47.87,-95.578 -11.789,-148.469Z" style="fill:#50a2df;"/><path d="M380.614,780.851c-1.45,45.168 20.795,102.147 66.184,141.504c45.389,39.357 104.944,53.306 149.451,45.474c-57.307,66.09 -152.145,77.857 -211.651,26.259c-59.506,-51.598 -61.291,-147.146 -3.984,-213.237Z" style="fill:#2d7cc7;"/></g></svg>