<?xml version="1.0" encoding="UTF-8" standalone="no"?><!DOCTYPE svg PUBLIC "-//W3C//DTD SVG 1.1//EN" "http://www.w3.org/Graphics/SVG/1.1/DTD/svg11.dtd"><svg width="100%" height="100%" viewBox="0 0 2167 2167" version="1.1" xmlns="http://www.w3.org/2000/svg" xmlns:xlink="http://www.w3.org/1999/xlink" xml:space="preserve" xmlns:serif="http://www.serif.com/" style="fill-rule:evenodd;clip-rule:evenodd;stroke-linecap:round;stroke-linejoin:round;stroke-miterlimit:1.5;"><g id="Sketch"><path d="M725.694,31.481c325,-4.166 641.667,0 962.5,4.167c75,4.167 137.5,20.833 195.834,41.667c58.333,29.166 108.333,66.666 154.166,108.333c37.5,50 62.5,91.667 83.334,137.5c16.666,50 25,95.833 29.166,137.5c8.334,420.833 8.334,841.667 0,1250c-8.333,79.167 -20.833,145.833 -54.166,204.167c-29.167,62.5 -70.834,104.166 -116.667,145.833c-45.833,37.5 -87.5,58.333 -129.167,75c-62.5,16.667 -112.5,25 -166.666,29.167c-404.167,-0 -800,4.166 -1195.83,-0c-79.166,-4.167 -145.833,-16.667 -204.166,-45.834c-62.5,-25 -108.334,-58.333 -150,-108.333c-45.834,-50 -70.834,-100 -87.5,-150c-16.667,-66.667 -25,-125 -29.167,-183.333c-4.167,-400 0,-783.334 -4.167,-1175c8.334,-70.834 16.667,-129.167 37.5,-187.5c45.834,-104.167 137.5,-195.834 233.334,-233.334c62.5,-25 116.666,-41.666 175,-45.833c95.833,0 175,-4.167 262.5,0" style="fill:#326ca9;fill-rule:nonzero;"/><path d="M488.194,39.815c-58.333,4.166 -112.5,12.5 -162.5,33.333c-108.333,29.167 -204.166,116.667 -250,212.5c-33.333,58.333 -45.833,116.667 -50,179.167c0,450 -12.5,812.5 0,1229.17c4.167,70.834 16.667,125 33.334,175c20.833,62.5 45.833,112.5 95.833,154.167c37.5,41.667 75,66.667 112.5,87.5c62.5,25 120.833,41.667 179.167,45.833c425,4.167 841.666,0 1258.33,4.167c58.333,-8.333 108.333,-16.667 150,-37.5c58.333,-20.833 100,-41.667 141.667,-79.167c54.166,-54.166 87.5,-104.166 112.5,-158.333c20.833,-70.833 37.5,-133.333 33.333,-208.333c4.167,-395.834 4.167,-783.334 4.167,-1175c-0,-70.834 -16.667,-129.167 -37.5,-183.334c-16.667,-45.833 -37.5,-79.166 -62.5,-112.5c-50,-58.333 -104.167,-95.833 -158.334,-120.833c-75,-25 -137.5,-45.833 -208.333,-45.833c-404.167,-4.167 -791.667,-0 -1183.33,-0" style="fill:#316ba8;fill-rule:nonzero;"/><path d="M1263.19,185.648c50,-8.333 91.667,8.333 120.834,50c58.333,120.833 104.166,233.333 154.166,350c50,8.333 100,0 137.5,20.833c37.5,12.5 62.5,41.667 75,66.667c8.334,87.5 4.167,166.667 8.334,241.667c33.333,29.166 62.5,54.166 75,87.5c8.333,70.833 4.166,141.666 8.333,204.166c8.333,8.334 16.667,8.334 25,12.5c20.833,16.667 29.167,29.167 25,50c8.333,91.667 4.167,162.5 0,245.834c-4.167,16.666 -12.5,25 -20.833,29.166c-12.5,12.5 -20.834,16.667 -33.334,12.5c-8.333,83.334 4.167,166.667 -8.333,241.667c-16.667,25 -25,41.667 -45.833,54.167c-25,20.833 -50,33.333 -75,37.5l-1237.5,-0c-33.334,-0 -54.167,-12.5 -79.167,-20.834c-25,-20.833 -45.833,-41.666 -62.5,-58.333c-16.667,-33.333 -25,-58.333 -20.833,-87.5c-8.334,-329.167 -8.334,-645.833 -8.334,-970.833c12.5,-54.167 66.667,-83.334 62.5,-137.5c25,-33.334 54.167,-45.834 79.167,-58.334c266.667,-125 529.167,-241.666 791.667,-362.5c16.666,0 16.666,-8.333 20.833,-8.333" style="fill:#458fd0;fill-rule:nonzero;"/><path d="M329.861,660.648c-50,333.333 -4.167,708.333 -25,1054.17c4.167,37.5 12.5,62.5 25,87.5c12.5,20.833 33.333,33.333 41.667,50c33.333,20.833 62.5,33.333 91.666,33.333c387.5,0 762.5,4.167 1137.5,0c33.334,0 54.167,-4.167 70.834,-16.667c25,-12.5 37.5,-20.833 50,-29.166c16.666,-25 29.166,-41.667 33.333,-58.334c12.5,-62.5 4.167,-120.833 8.333,-170.833c20.834,-8.333 41.667,-8.333 58.334,-12.5c4.166,-12.5 4.166,-25 8.333,-33.333c-91.667,-12.5 -175,4.166 -262.5,-4.167c-20.833,-8.333 -37.5,-12.5 -54.167,-20.833c-20.833,-25 -41.666,-37.5 -54.166,-58.334c-16.667,-45.833 -20.834,-87.5 -20.834,-125c4.167,-37.5 16.667,-58.333 25,-79.166c16.667,-25 37.5,-41.667 54.167,-54.167c83.333,-16.667 162.5,-4.167 237.5,-12.5c8.333,-54.167 8.333,-104.167 8.333,-154.167c-8.333,-29.166 -16.666,-45.833 -29.166,-62.5c-429.167,-16.666 -854.167,-12.5 -1275,-16.666c-20.834,-0 -29.167,-8.334 -41.667,-12.5c-25,-25 -41.667,-41.667 -50,-62.5l0,-62.5l4.167,-8.334l4.166,-4.166l0,-4.167l4.167,0c8.333,4.167 -8.333,12.5 0,12.5c8.333,-20.833 12.5,-16.667 0,-12.5c8.333,-16.667 8.333,-16.667 12.5,-25c-4.167,4.167 -8.333,16.667 -12.5,4.167c8.333,-29.167 -16.667,-83.334 -25,-120.834" style="fill:#2d7cc7;fill-rule:nonzero;"/><path d="M1250.69,198.148l-8.333,0c-275,125 -550,245.833 -829.167,375c-25,25 -45.833,41.667 -50,66.667c0,29.166 -4.166,50 4.167,62.5c29.167,70.833 50,137.5 83.333,195.833c37.5,12.5 75,8.333 108.334,12.5c-25,-70.833 -50,-133.333 -79.167,-191.667c-8.333,-25 -12.5,-41.666 0,-58.333c108.333,-62.5 216.667,-108.333 325,-162.5c29.167,-4.167 41.667,0 50,12.5c62.5,133.333 125,262.5 179.167,391.667c158.333,4.166 316.666,8.333 470.833,4.166c37.5,-8.333 58.333,-25 83.333,-41.666c16.667,-220.834 -133.333,-404.167 -187.5,-608.334c-20.833,-33.333 -54.166,-58.333 -79.166,-58.333c-25,-8.333 -41.667,-8.333 -58.334,-8.333" style="fill:#80bae5;fill-rule:nonzero;"/><path d="M371.528,827.315c-4.167,29.166 -8.334,66.666 8.333,87.5c20.833,33.333 45.833,50 66.667,58.333c429.166,4.167 845.833,0 1262.5,4.167c33.333,16.666 50,41.666 54.166,66.666c4.167,62.5 4.167,112.5 4.167,166.667c-75,4.167 -145.833,4.167 -216.667,4.167c-20.833,8.333 -33.333,12.5 -45.833,20.833c-33.333,29.167 -45.833,54.167 -54.167,83.333c-12.5,50 -4.166,91.667 4.167,125c4.167,41.667 29.167,62.5 54.167,83.334c25,16.666 45.833,29.166 66.666,29.166c100,4.167 179.167,-8.333 270.834,0c20.833,-4.166 37.5,-20.833 41.666,-33.333l0,-266.667c-8.333,-29.166 -29.166,-37.5 -50,-37.5c-4.166,-75 4.167,-141.666 -4.166,-204.166c-8.334,-20.834 -16.667,-33.334 -25,-45.834c-25,-25 -41.667,-37.5 -62.5,-50c-241.667,-8.333 -475,-4.166 -712.5,-8.333l-8.334,-4.167l0,-4.166l4.167,-0l-4.167,-4.167l0,4.167l4.167,8.333l-8.333,4.167c-183.334,-0 -350,-4.167 -533.334,-0c-45.833,-12.5 -41.666,-12.5 -75,-29.167c-20.833,-16.667 -29.166,-33.333 -37.5,-45.833" style="fill:#50a2df;fill-rule:nonzero;"/><path d="M817.361,502.315c-8.333,-0 -12.5,4.166 -16.667,8.333c-112.5,45.833 -208.333,95.833 -312.5,137.5c-12.5,20.833 -12.5,33.333 -8.333,50c29.167,75 62.5,137.5 87.5,204.167c50,8.333 91.667,8.333 137.5,8.333c45.833,-29.167 87.5,-58.333 133.333,-66.667c37.5,-4.166 62.5,0 87.5,12.5c25,12.5 33.334,33.334 41.667,45.834c20.833,4.166 37.5,4.166 50,4.166c-54.167,-141.666 -100,-291.666 -183.333,-416.666" style="fill:#4a95d5;fill-rule:nonzero;"/><path d="M1263.19,360.648c62.5,-16.667 75,62.5 91.667,95.833c20.833,58.334 54.167,104.167 54.167,154.167c-16.667,29.167 -41.667,41.667 -58.334,50c-79.166,33.333 -145.833,66.667 -216.666,87.5c-29.167,-12.5 -45.834,-33.333 -50,-50c-29.167,-58.333 -50,-108.333 -75,-158.333c-8.334,-20.834 -8.334,-37.5 -0,-45.834c8.333,-20.833 16.666,-29.166 29.166,-33.333c62.5,-33.333 120.834,-58.333 179.167,-83.333c20.833,-8.334 29.167,-8.334 41.667,-12.5" style="fill:#3379ba;fill-rule:nonzero;"/><path d="M1275.69,360.648c-8.333,20.833 -20.833,0 -25,16.667c-70.833,29.166 -158.333,58.333 -233.333,100c-20.833,25 -4.167,50 0,58.333c33.333,70.833 54.167,133.333 87.5,191.667c37.5,16.666 54.167,8.333 70.833,-4.167c79.167,-33.333 137.5,-50 229.167,-104.167c4.167,-25 -8.333,-33.333 -12.5,-45.833c-41.667,-79.167 -37.5,-150 -104.167,-216.667" style="fill:#2f75b8;fill-rule:nonzero;"/><path d="M700.694,631.481c29.167,-8.333 62.5,0 79.167,12.5c29.167,20.834 41.667,41.667 45.833,62.5c4.167,37.5 4.167,62.5 -12.5,79.167c-16.666,33.333 -41.666,45.833 -62.5,54.167c-33.333,4.166 -58.333,4.166 -79.166,-8.334c-29.167,-16.666 -41.667,-41.666 -50,-62.5c-4.167,-33.333 -4.167,-62.5 8.333,-87.5c25,-25 41.667,-41.666 62.5,-50" style="fill:#92caf0;fill-rule:nonzero;"/><path d="M713.194,635.648c-25,4.167 -50,12.5 -66.666,37.5c-20.834,25 -25,54.167 -20.834,83.333c4.167,29.167 16.667,45.834 37.5,58.334c25,20.833 50,25 70.834,25c33.333,-8.334 54.166,-20.834 66.666,-41.667c20.834,-25 25,-50 20.834,-79.167c-0,-29.166 -16.667,-41.666 -25,-62.5c-29.167,-20.833 -54.167,-20.833 -75,-25" style="fill:#9bd1f4;fill-rule:nonzero;"/><path d="M1542.36,598.148c12.5,25 25,50 33.333,75c25,8.333 45.834,8.333 62.5,4.167c0,8.333 33.334,8.333 29.167,25c12.5,66.666 8.333,137.5 16.667,195.833l-8.334,8.333l-4.166,0l-0,4.167l-4.167,0c29.167,-4.167 58.333,-4.167 79.167,8.333c8.333,-75 8.333,-145.833 4.166,-220.833c0,-20.833 -8.333,-29.167 -12.5,-41.667c-20.833,-33.333 -50,-45.833 -75,-54.166c-41.666,-12.5 -79.166,-4.167 -108.333,-8.334" style="fill:#2c79c3;fill-rule:nonzero;"/><path d="M1575.69,1314.82c20.834,-4.167 50,-4.167 62.5,8.333c25,20.833 37.5,33.333 37.5,50c0,29.167 4.167,54.167 -12.5,75c-12.5,16.667 -25,29.167 -37.5,33.333c-29.166,0 -50,4.167 -66.666,-4.166c-16.667,-16.667 -33.334,-29.167 -33.334,-41.667c-4.166,-29.167 4.167,-45.833 0,-66.667c12.5,-25 25,-41.666 41.667,-50" style="fill:#7cbbea;fill-rule:nonzero;"/><path d="M1429.86,706.481l4.167,-8.333c29.166,-4.167 54.166,45.833 16.666,54.167c-83.333,41.666 -162.5,79.166 -237.5,112.5c-20.833,8.333 -37.5,12.5 -54.166,8.333l-8.334,-4.167l-4.166,-4.166l-4.167,-8.334c-4.167,-16.666 -4.167,-29.166 12.5,-33.333c91.667,-41.667 179.167,-83.333 266.667,-116.667" style="fill:#4490d2;fill-rule:nonzero;"/><path d="M1834.03,1564.82c-4.167,8.333 -0,25 -0,37.5c-29.167,4.166 -45.834,4.166 -62.5,4.166c-8.334,45.834 -4.167,91.667 -4.167,137.5c-4.167,29.167 -12.5,50 -25,70.834c-20.833,29.166 -41.667,41.666 -62.5,54.166c-25,16.667 -41.667,20.834 -62.5,20.834c33.333,-4.167 66.667,-0 95.833,-8.334c41.667,-8.333 66.667,-25 87.5,-54.166c16.667,-20.834 25,-33.334 29.167,-50c4.167,-75 4.167,-141.667 0,-208.334" style="fill:#4294d7;fill-rule:nonzero;"/><path d="M1579.86,685.648c16.667,16.667 20.833,54.167 33.333,79.167c4.167,20.833 0,33.333 4.167,50c-4.167,29.166 -25,50 -50,66.666c-16.667,16.667 -29.167,20.834 -41.667,29.167c45.834,-4.167 100,4.167 150,-4.167c-4.166,-66.666 0,-137.5 -4.166,-200c-4.167,-16.666 -16.667,-16.666 -20.834,-20.833c-25,0 -45.833,-4.167 -62.5,-4.167" style="fill:#1a5aa0;fill-rule:nonzero;"/><path d="M1429.86,710.648l-12.5,0c-79.167,33.333 -154.167,70.833 -237.5,100c-20.833,12.5 -37.5,20.833 -33.333,41.667c-0,12.5 8.333,16.666 12.5,12.5c108.333,-25 195.833,-75 291.666,-112.5c16.667,-20.834 12.5,-45.834 -8.333,-45.834" style="fill:#3585cc;fill-rule:nonzero;"/><path d="M1584.03,1318.98c-16.667,8.334 -33.334,12.5 -37.5,29.167c-20.834,16.667 -12.5,37.5 -16.667,54.167c8.333,25 25,41.666 37.5,50c25,8.333 41.667,8.333 54.167,-0c20.833,-8.334 37.5,-25 45.833,-33.334c4.167,-25 8.333,-37.5 0,-50c-4.167,-25 -16.667,-37.5 -33.333,-41.666c-16.667,-12.5 -29.167,-8.334 -41.667,-12.5" style="fill:#90caf2;fill-rule:nonzero;"/><path d="M859.028,848.148c-16.667,4.167 -37.5,0 -50,12.5c-37.5,12.5 -62.5,29.167 -87.5,45.833c58.333,-16.666 266.666,37.5 229.166,-29.166c-37.5,-20.834 -54.166,-29.167 -79.166,-25" style="fill:#99d0f4;fill-rule:nonzero;"/><path d="M1192.36,564.815c20.833,33.333 33.333,54.166 37.5,87.5c-33.333,8.333 -58.333,37.5 -91.667,29.166c-16.666,-25 -29.166,-50 -37.5,-62.5c33.334,-25 45.834,-25 83.334,-50" style="fill:#4390cf;fill-rule:nonzero;"/><path d="M1313.19,510.648c20.834,25 29.167,41.667 33.334,79.167c-16.667,29.166 -50,29.166 -66.667,45.833c-33.333,-20.833 -33.333,-45.833 -45.833,-66.667c20.833,-33.333 41.666,-29.166 66.666,-50" style="fill:#438fcf;fill-rule:nonzero;"/><path d="M1138.19,460.648c33.334,16.667 33.334,45.833 41.667,75c-29.167,16.667 -66.667,33.333 -83.333,41.667c-16.667,-29.167 -37.5,-29.167 -25,-66.667c25,-25 37.5,-29.167 62.5,-41.667" style="fill:#4692d1;fill-rule:nonzero;"/><path d="M1246.53,418.981c20.833,-12.5 41.666,29.167 50,29.167c-4.167,8.333 20.833,20.833 4.166,33.333c-29.166,16.667 -45.833,33.334 -79.166,37.5c-12.5,-12.5 -25,-54.166 -29.167,-62.5c20.833,-29.166 25,-20.833 45.833,-33.333" style="fill:#4693d1;fill-rule:nonzero;"/><path d="M1196.53,577.315c-29.167,8.333 -58.334,25 -87.5,33.333c12.5,25 12.5,45.833 25,66.667c37.5,-0 58.333,-16.667 83.333,-25c0,-29.167 -12.5,-45.834 -20.833,-66.667" style="fill:#50a1de;fill-rule:nonzero;"/><path d="M1317.36,523.148c-25,8.333 -45.833,25 -70.833,33.333c4.166,25 8.333,50 20.833,70.834c29.167,-8.334 45.833,-16.667 66.667,-29.167c8.333,-33.333 -8.334,-50 -12.5,-75" style="fill:#50a0de;fill-rule:nonzero;"/><path d="M1150.69,468.981c-25,8.334 -45.833,25 -70.833,33.334c-8.333,29.166 4.167,50 12.5,66.666c25,-8.333 54.167,-20.833 75,-33.333c0,-25 -8.333,-41.667 -16.667,-58.333" style="fill:#54a4e0;fill-rule:nonzero;"/><path d="M1246.53,427.315c-16.667,8.333 -29.167,12.5 -45.834,16.666c4.167,29.167 8.334,45.834 20.834,62.5c25,0 50,-12.5 70.833,-25c0,-25 -12.5,-54.166 -41.667,-58.333" style="fill:#54a4e0;fill-rule:nonzero;"/><path d="M1529.86,1398.15c-4.167,20.833 -4.167,33.333 4.167,50c16.666,16.667 25,29.167 37.5,29.167c25,-0 41.666,4.166 54.166,-4.167c29.167,-12.5 45.834,-29.167 45.834,-50c4.166,-20.833 -16.667,29.167 -37.5,29.167c-16.667,12.5 -33.334,8.333 -45.834,12.5c-25,-8.334 -37.5,-20.834 -50,-29.167c-4.166,-16.667 -8.333,-20.833 -12.5,-25" style="fill:#3886c7;fill-rule:nonzero;"/><path d="M384.028,760.648c-8.334,58.333 -0,62.5 4.166,70.833c8.334,33.334 29.167,54.167 50,62.5c-16.666,-41.666 -33.333,-79.166 -50,-120.833" style="fill:#1b5b9e;fill-rule:nonzero;"/></g><g id="icon"><path id="bkgrnd" d="M2166.67,342.807l-0,1481.05c-0,189.2 -153.607,342.807 -342.807,342.807l-1481.05,-0c-189.2,-0 -342.807,-153.607 -342.807,-342.807l0,-1481.05c0,-189.2 153.607,-342.807 342.807,-342.807l1481.05,-0c189.2,-0 342.807,153.607 342.807,342.807Z" style="fill:#113a67;"/><g id="wallet"><path id="wallet-back" d="M1720.83,657.443l0,1057.73c0,70.456 -57.201,127.657 -127.657,127.657l-1128.02,0c-70.456,0 -127.657,-57.201 -127.657,-127.657l0,-942.23c0,-104.006 84.44,-188.446 188.446,-188.446l1121.94,-0c40.261,-0 72.947,32.686 72.947,72.947Z" style="fill:#1a5aa0;stroke:#2c79c3;stroke-width:83.33px;"/><g id="cc"><path id="cc1" serif:id="cc" d="M1432.77,243.674l209.435,493.396c24.712,58.219 -2.491,125.548 -60.709,150.261l-826.19,350.696c-58.218,24.713 -125.548,-2.49 -150.26,-60.709l-209.435,-493.397c-24.712,-58.218 2.491,-125.548 60.709,-150.26l826.19,-350.697c58.219,-24.712 125.548,2.491 150.26,60.71Z" style="fill:#80bae5;"/><g id="logo"><path id="logo1" serif:id="logo" d="M1366.5,286.214l91.233,214.933c10.765,25.361 -1.085,54.691 -26.446,65.456l-214.933,91.234c-25.361,10.765 -54.691,-1.085 -65.456,-26.446l-91.233,-214.933c-10.766,-25.361 1.085,-54.691 26.446,-65.456l214.932,-91.234c25.361,-10.765 54.691,1.085 65.457,26.446Z" style="fill:#2f75b8;"/><path id="dot" d="M1378.08,453.063l16.516,38.91c4.428,10.431 -0.446,22.494 -10.877,26.922l-38.91,16.516c-10.431,4.428 -22.494,-0.446 -26.921,-10.877l-16.517,-38.91c-4.427,-10.431 0.446,-22.494 10.877,-26.921l38.91,-16.517c10.431,-4.427 22.494,0.446 26.922,10.877Z" style="fill:#54a4e0;"/><path id="dot1" serif:id="dot" d="M1249.55,507.622l16.517,38.91c4.427,10.431 -0.447,22.494 -10.877,26.921l-38.911,16.517c-10.43,4.427 -22.494,-0.446 -26.921,-10.877l-16.517,-38.91c-4.427,-10.431 0.447,-22.494 10.877,-26.922l38.911,-16.516c10.43,-4.428 22.494,0.446 26.921,10.877Z" style="fill:#54a4e0;"/><path id="dot2" serif:id="dot" d="M1324.36,326.494l16.517,38.91c4.427,10.431 -0.446,22.494 -10.877,26.922l-38.91,16.516c-10.431,4.428 -22.494,-0.446 -26.922,-10.877l-16.516,-38.91c-4.428,-10.431 0.446,-22.494 10.877,-26.922l38.91,-16.516c10.431,-4.428 22.494,0.446 26.921,10.877Z" style="fill:#54a4e0;"/><path id="dot3" serif:id="dot" d="M1195.82,381.052l16.516,38.91c4.428,10.431 -0.446,22.494 -10.877,26.922l-38.91,16.516c-10.431,4.428 -22.494,-0.446 -26.922,-10.877l-16.516,-38.91c-4.428,-10.431 0.446,-22.494 10.877,-26.921l38.91,-16.517c10.431,-4.427 22.494,0.446 26.922,10.877Z" style="fill:#54a4e0;"/></g><path id="foto" d="M861.973,513.929l188.932,445.096c13.457,31.701 -1.356,68.364 -33.057,81.82l-268.666,114.042c-31.702,13.457 -68.364,-1.356 -81.821,-33.057l-188.932,-445.096c-13.456,-31.702 1.357,-68.364 33.058,-81.821l268.666,-114.041c31.701,-13.457 68.364,1.356 81.82,33.057Z" style="fill:#4a95d5;"/><path id="brand" d="M1524.37,658.135l15.966,37.613c1.884,4.438 -0.19,9.571 -4.628,11.455l-290.752,123.417c-4.438,1.884 -9.571,-0.19 -11.455,-4.628l-15.966,-37.614c-1.883,-4.438 0.19,-9.57 4.629,-11.454l290.752,-123.417c4.438,-1.884 9.571,0.19 11.454,4.628Z" style="fill:#3585cc;"/></g><path id="wallet-front" d="M1875,1014.93l-0,769.565c-0,55.191 -44.808,100 -100,100l-1341.67,-0c-55.191,-0 -100,-44.809 -100,-100l0,-900l1411.23,-0c71.989,-0 130.435,58.446 130.435,130.435Z" style="fill:#2d7cc7;"/><path d="M1875,1014.93l-0,769.565c-0,55.191 -44.808,100 -100,100l-1341.67,-0c-55.191,-0 -100,-44.809 -100,-100l0,-900l1411.23,-0c71.989,-0 130.435,58.446 130.435,130.435Zm-83.333,-0.001c-0,-25.995 -21.106,-47.101 -47.102,-47.101l-1327.9,0l-0,816.667c-0,9.198 7.468,16.666 16.666,16.666l1341.67,0c9.199,0 16.667,-7.468 16.667,-16.666l-0,-769.566Z" style="fill:#50a2df;"/><path id="wallet-front1" serif:id="wallet-front" d="M1791.67,1059.5l-0,758.575c-0,36.661 -29.764,66.425 -66.425,66.425l-1300.24,-0c-50.592,-0 -91.667,-41.075 -91.667,-91.667l0,-825l1366.67,0c50.592,0 91.667,41.075 91.667,91.667Z" style="fill:#2d7cc7;"/></g><path d="M337.5,814.839l0,335.161" style="fill:none;stroke:#2d7cc7;stroke-width:83.33px;"/><path d="M379.107,780.851c7.18,28.149 26.77,60.39 57.55,81.387c30.781,20.998 67.946,27.473 96.774,23.888c-36.08,52.891 -99.948,72.245 -142.535,43.194c-42.587,-29.052 -47.87,-95.578 -11.789,-148.469Z" style="fill:#50a2df;"/><path d="M380.614,780.851c-1.45,45.168 20.795,102.147 66.184,141.504c45.389,39.357 104.944,53.306 149.451,45.474c-57.307,66.09 -152.145,77.857 -211.651,26.259c-59.506,-51.598 -61.291,-147.146 -3.984,-213.237Z" style="fill:#2d7cc7;"/></g></svg>