<?xml version="1.0" encoding="UTF-8" standalone="no"?><!DOCTYPE svg PUBLIC "-//W3C//DTD SVG 1.1//EN" "http://www.w3.org/Graphics/SVG/1.1/DTD/svg11.dtd"><svg width="100%" height="100%" viewBox="0 0 1580 1694" version="1.1" xmlns="http://www.w3.org/2000/svg" xmlns:xlink="http://www.w3.org/1999/xlink" xml:space="preserve" xmlns:serif="http://www.serif.com/" style="fill-rule:evenodd;clip-rule:evenodd;stroke-linecap:round;stroke-linejoin:round;stroke-miterlimit:1.5;"><g id="icon"><g id="wallet"><path id="wallet-back" d="M1425,466.938l0,1057.73c0,70.456 -57.201,127.657 -127.657,127.657l-1128.02,-0c-70.456,-0 -127.657,-57.201 -127.657,-127.657l-0,-942.23c-0,-104.007 84.44,-188.446 188.446,-188.446l1121.94,-0c40.261,-0 72.947,32.686 72.947,72.946Z" style="fill:#42322f;stroke:#785b55;stroke-width:83.33px;"/><g id="cc"><path id="cc1" serif:id="cc" d="M1157.77,69.836l209.435,493.397c24.712,58.218 -2.491,125.548 -60.709,150.26l-826.19,350.697c-58.218,24.712 -125.548,-2.491 -150.26,-60.71l-209.435,-493.396c-24.712,-58.219 2.491,-125.548 60.709,-150.261l826.19,-350.696c58.219,-24.713 125.548,2.49 150.26,60.709Z" style="fill:#e7e7e7;"/><g id="logo"><path id="logo1" serif:id="logo" d="M1048.13,154.765l91.233,214.933c10.765,25.361 -1.085,54.691 -26.446,65.456l-214.932,91.234c-25.362,10.765 -54.691,-1.085 -65.457,-26.446l-91.233,-214.933c-10.765,-25.361 1.085,-54.691 26.446,-65.456l214.933,-91.234c25.361,-10.765 54.691,1.085 65.456,26.446Z" style="fill:#91bbe3;"/><path id="dot" d="M1059.71,321.614l16.517,38.911c4.427,10.43 -0.447,22.493 -10.877,26.921l-38.911,16.517c-10.43,4.427 -22.494,-0.447 -26.921,-10.877l-16.517,-38.911c-4.427,-10.431 0.447,-22.494 10.877,-26.921l38.911,-16.517c10.43,-4.427 22.493,0.447 26.921,10.877Z" style="fill:#8ed5a3;"/><path id="dot1" serif:id="dot" d="M931.181,376.173l16.517,38.91c4.427,10.431 -0.446,22.494 -10.877,26.922l-38.91,16.516c-10.431,4.428 -22.494,-0.446 -26.922,-10.877l-16.516,-38.91c-4.428,-10.431 0.446,-22.494 10.877,-26.922l38.91,-16.516c10.431,-4.428 22.494,0.446 26.921,10.877Z" style="fill:#f0d38e;"/><path id="dot2" serif:id="dot" d="M1005.99,195.045l16.516,38.91c4.428,10.431 -0.446,22.494 -10.877,26.922l-38.91,16.516c-10.431,4.428 -22.494,-0.446 -26.922,-10.877l-16.516,-38.91c-4.428,-10.431 0.446,-22.494 10.877,-26.922l38.91,-16.516c10.431,-4.428 22.494,0.446 26.922,10.877Z" style="fill:#c7e0fd;"/><path id="dot3" serif:id="dot" d="M877.456,249.603l16.516,38.911c4.428,10.43 -0.446,22.494 -10.877,26.921l-38.91,16.517c-10.431,4.427 -22.494,-0.447 -26.921,-10.877l-16.517,-38.911c-4.427,-10.43 0.446,-22.494 10.877,-26.921l38.91,-16.517c10.431,-4.427 22.494,0.447 26.922,10.877Z" style="fill:#d690b4;"/></g><path id="foto" d="M586.973,340.091l188.932,445.096c13.457,31.702 -1.356,68.364 -33.057,81.821l-268.666,114.042c-31.702,13.456 -68.364,-1.357 -81.821,-33.058l-188.932,-445.096c-13.456,-31.701 1.357,-68.364 33.058,-81.82l268.666,-114.042c31.701,-13.456 68.364,1.356 81.82,33.057Z" style="fill:#b2b2b2;"/><clipPath id="_clip1"><path d="M586.973,340.091l188.932,445.096c13.457,31.702 -1.356,68.364 -33.057,81.821l-268.666,114.042c-31.702,13.456 -68.364,-1.357 -81.821,-33.058l-188.932,-445.096c-13.456,-31.701 1.357,-68.364 33.058,-81.82l268.666,-114.042c31.701,-13.456 68.364,1.356 81.82,33.057Z"/></clipPath><g clip-path="url(#_clip1)"><path d="M401.281,441.771c42.337,-17.971 91.299,1.811 109.27,44.148c17.971,42.337 -1.811,91.299 -44.148,109.27c-42.336,17.971 -91.299,-1.811 -109.269,-44.148c-17.971,-42.337 1.811,-91.299 44.147,-109.27Z" style="fill:#f2e0d0;"/><path d="M691.596,830.186l-212.582,90.235c-22.135,-22.197 -40.696,-50.155 -53.816,-81.066c-41.254,-97.187 -19.751,-199.435 47.987,-228.189c67.739,-28.753 156.227,26.807 197.481,123.994c13.12,30.911 20.339,63.684 20.93,95.026Z" style="fill:#f2e0d0;"/></g><path id="brand" d="M1182.7,471.797l15.966,37.613c1.884,4.439 -0.19,9.571 -4.628,11.455l-290.752,123.417c-4.439,1.884 -9.571,-0.19 -11.455,-4.628l-15.966,-37.613c-1.884,-4.438 0.19,-9.571 4.628,-11.455l290.752,-123.417c4.438,-1.884 9.571,0.19 11.455,4.628Z" style="fill:#bbd6ee;"/></g><path id="wallet-front" d="M1579.17,824.426l-0,739.566c-0,71.748 -58.251,130 -130,130l-1299.41,-0c-82.653,-0 -149.758,-67.105 -149.758,-149.759l0,-850.241l1448.73,-0c71.989,-0 130.435,58.445 130.435,130.434Z" style="fill:#85735e;"/><path d="M1579.17,824.426l-0,739.566c-0,71.748 -58.251,130 -130,130l-1299.41,-0c-82.653,-0 -149.758,-67.105 -149.758,-149.759l-0,-850.241l1448.73,-0c71.989,-0 130.435,58.445 130.435,130.434Zm-83.334,0c0,-25.996 -21.105,-47.101 -47.101,-47.101l-1365.4,-0l0,766.908c0,36.661 29.764,66.425 66.425,66.425l1299.41,0c25.756,0 46.666,-20.91 46.666,-46.666l0,-739.566Z" style="fill:#785b55;"/><path id="wallet-front1" serif:id="wallet-front" d="M1495.83,842.742l0,541.346c0,26.163 -21.24,47.404 -47.403,47.404l-1345.51,-0c-36.105,-0 -65.417,-29.313 -65.417,-65.417l0,-588.75l1392.92,-0c36.104,-0 65.416,29.312 65.416,65.417Z" style="fill:#85735e;"/></g><path d="M77.094,534.185c-0.351,34.093 16.534,78.828 50.642,112.711c34.109,33.884 78.955,50.471 113.045,49.894c-45.122,45.422 -118.428,45.869 -163.599,0.997c-45.171,-44.872 -45.21,-118.18 -0.088,-163.602Z" style="fill:#785b55;"/><path d="M77.094,534.185c-0.351,34.093 16.534,78.828 50.642,112.711c34.109,33.884 78.955,50.471 113.045,49.894c-45.122,45.422 -118.428,45.869 -163.599,0.997c-45.171,-44.872 -45.21,-118.18 -0.088,-163.602Zm-3.782,10.345c-36.626,44.018 -34.358,109.408 6.806,150.301c41.167,40.894 106.575,42.727 150.343,5.809c-33.359,-2.515 -74.028,-19.363 -105.661,-50.788c-31.634,-31.424 -48.752,-71.98 -51.488,-105.322Z" style="fill:#785b55;"/><path d="M16.613,600.95c13.72,42.397 46.7,92.179 95.981,126.842c49.281,34.662 107.281,48.872 151.82,47.452c-48.695,40.524 -128.13,45.361 -187.654,3.494c-59.524,-41.867 -81.824,-118.26 -60.147,-177.788Z" style="fill:#85735e;"/><path d="M41.667,624.335l-0,926.827" style="fill:none;stroke:#785b55;stroke-width:83.33px;"/></g></svg>