<?xml version="1.0" encoding="UTF-8" standalone="no"?><!DOCTYPE svg PUBLIC "-//W3C//DTD SVG 1.1//EN" "http://www.w3.org/Graphics/SVG/1.1/DTD/svg11.dtd"><svg width="100%" height="100%" viewBox="0 0 1580 1694" version="1.1" xmlns="http://www.w3.org/2000/svg" xmlns:xlink="http://www.w3.org/1999/xlink" xml:space="preserve" xmlns:serif="http://www.serif.com/" style="fill-rule:evenodd;clip-rule:evenodd;stroke-linecap:round;stroke-linejoin:round;stroke-miterlimit:1.5;"><g id="icon"><g id="wallet"><path id="wallet-back" d="M1425,466.938l0,1057.73c0,70.456 -57.201,127.657 -127.657,127.657l-1128.02,-0c-70.456,-0 -127.657,-57.201 -127.657,-127.657l-0,-942.23c-0,-104.007 84.44,-188.446 188.446,-188.446l1121.94,-0c40.261,-0 72.947,32.686 72.947,72.946Z" style="fill:#42322f;stroke:#4f5180;stroke-width:83.33px;"/><g id="cc"><path id="cc1" serif:id="cc" d="M1157.77,69.836l209.435,493.397c24.712,58.218 -2.491,125.548 -60.709,150.26l-826.19,350.697c-58.218,24.712 -125.548,-2.491 -150.26,-60.71l-209.435,-493.396c-24.712,-58.219 2.491,-125.548 60.709,-150.261l826.19,-350.696c58.219,-24.713 125.548,2.49 150.26,60.709Z" style="fill:#e7e7e7;"/><g id="logo"><path id="logo1" serif:id="logo" d="M1048.13,154.765l91.233,214.933c10.765,25.361 -1.085,54.691 -26.446,65.456l-214.932,91.234c-25.362,10.765 -54.691,-1.085 -65.457,-26.446l-91.233,-214.933c-10.765,-25.361 1.085,-54.691 26.446,-65.456l214.933,-91.234c25.361,-10.765 54.691,1.085 65.456,26.446Z" style="fill:#91bbe3;"/><path id="dot" d="M1059.71,321.614l16.517,38.911c4.427,10.43 -0.447,22.493 -10.877,26.921l-38.911,16.517c-10.43,4.427 -22.494,-0.447 -26.921,-10.877l-16.517,-38.911c-4.427,-10.431 0.447,-22.494 10.877,-26.921l38.911,-16.517c10.43,-4.427 22.493,0.447 26.921,10.877Z" style="fill:#8ed5a3;"/><path id="dot1" serif:id="dot" d="M931.181,376.173l16.517,38.91c4.427,10.431 -0.446,22.494 -10.877,26.922l-38.91,16.516c-10.431,4.428 -22.494,-0.446 -26.922,-10.877l-16.516,-38.91c-4.428,-10.431 0.446,-22.494 10.877,-26.922l38.91,-16.516c10.431,-4.428 22.494,0.446 26.921,10.877Z" style="fill:#f0d38e;"/><path id="dot2" serif:id="dot" d="M1005.99,195.045l16.516,38.91c4.428,10.431 -0.446,22.494 -10.877,26.922l-38.91,16.516c-10.431,4.428 -22.494,-0.446 -26.922,-10.877l-16.516,-38.91c-4.428,-10.431 0.446,-22.494 10.877,-26.922l38.91,-16.516c10.431,-4.428 22.494,0.446 26.922,10.877Z" style="fill:#c7e0fd;"/><path id="dot3" serif:id="dot" d="M877.456,249.603l16.516,38.911c4.428,10.43 -0.446,22.494 -10.877,26.921l-38.91,16.517c-10.431,4.427 -22.494,-0.447 -26.921,-10.877l-16.517,-38.911c-4.427,-10.43 0.446,-22.494 10.877,-26.921l38.91,-16.517c10.431,-4.427 22.494,0.447 26.922,10.877Z" style="fill:#d690b4;"/></g><path id="foto" d="M586.973,340.091l188.932,445.096c13.457,31.702 -1.356,68.364 -33.057,81.821l-268.666,114.042c-31.702,13.456 -68.364,-1.357 -81.821,-33.058l-188.932,-445.096c-13.456,-31.701 1.357,-68.364 33.058,-81.82l268.666,-114.042c31.701,-13.456 68.364,1.356 81.82,33.057Z" style="fill:#b2b2b2;"/><clipPath id="_clip1"><path d="M586.973,340.091l188.932,445.096c13.457,31.702 -1.356,68.364 -33.057,81.821l-268.666,114.042c-31.702,13.456 -68.364,-1.357 -81.821,-33.058l-188.932,-445.096c-13.456,-31.701 1.357,-68.364 33.058,-81.82l268.666,-114.042c31.701,-13.456 68.364,1.356 81.82,33.057Z"/></clipPath><g clip-path="url(#_clip1)"><path d="M401.281,441.771c42.337,-17.971 91.299,1.811 109.27,44.148c17.971,42.337 -1.811,91.299 -44.148,109.27c-42.336,17.971 -91.299,-1.811 -109.269,-44.148c-17.971,-42.337 1.811,-91.299 44.147,-109.27Z" style="fill:#f2e0d0;"/><path d="M691.596,830.186l-212.582,90.235c-22.135,-22.197 -40.696,-50.155 -53.816,-81.066c-41.254,-97.187 -19.751,-199.435 47.987,-228.189c67.739,-28.753 156.227,26.807 197.481,123.994c13.12,30.911 20.339,63.684 20.93,95.026Z" style="fill:#f2e0d0;"/></g><path id="brand" d="M1182.7,471.797l15.966,37.613c1.884,4.439 -0.19,9.571 -4.628,11.455l-290.752,123.417c-4.439,1.884 -9.571,-0.19 -11.455,-4.628l-15.966,-37.613c-1.884,-4.438 0.19,-9.571 4.628,-11.455l290.752,-123.417c4.438,-1.884 9.571,0.19 11.455,4.628Z" style="fill:#bbd6ee;"/></g><path id="wallet-front" d="M1579.17,824.426l-0,739.566c-0,71.748 -58.251,130 -130,130l-1299.41,-0c-82.653,-0 -149.758,-67.105 -149.758,-149.759l0,-850.241l1448.73,-0c71.989,-0 130.435,58.445 130.435,130.434Z" style="fill:#a59480;"/><path d="M1579.17,824.426l-0,739.566c-0,71.748 -58.251,130 -130,130l-1299.41,-0c-82.653,-0 -149.758,-67.105 -149.758,-149.759l0,-850.241l1448.73,-0c71.989,-0 130.435,58.445 130.435,130.434Zm-83.334,0c0,-25.996 -21.105,-47.101 -47.101,-47.101l-1365.4,-0l0,766.908c0,36.661 29.764,66.425 66.425,66.425l1299.41,0c25.756,0 46.666,-20.91 46.666,-46.666l0,-739.566Z" style="fill:#4f5180;"/><path id="wallet-front1" serif:id="wallet-front" d="M1495.83,826.037l0,801.529c0,36.661 -29.764,66.426 -66.425,66.426l-1337.74,-0c-50.593,-0 -91.667,-41.075 -91.667,-91.667l0,-825l1447.12,-0c26.884,-0 48.711,21.827 48.711,48.712Z" style="fill:url(#_Linear2);"/><path d="M0,570.144l0,207.181l238.194,-0c-62.871,-0.431 -238.147,-31.37 -238.194,-207.181Z" style="fill:url(#_Linear3);"/><path d="M75,540.977l0,153.015l225.694,-0c-129.538,-0.432 -225.647,-27.204 -225.694,-153.015Z" style="fill:#4f5180;"/></g></g><defs><linearGradient id="_Linear2" x1="0" y1="0" x2="1" y2="0" gradientUnits="userSpaceOnUse" gradientTransform="matrix(1495.83,0,0,916.667,3.97904e-13,1235.66)"><stop offset="0" style="stop-color:#785b55;stop-opacity:1"/><stop offset="0.34" style="stop-color:#9f8d7b;stop-opacity:1"/><stop offset="1" style="stop-color:#a69581;stop-opacity:1"/></linearGradient><linearGradient id="_Linear3" x1="0" y1="0" x2="1" y2="0" gradientUnits="userSpaceOnUse" gradientTransform="matrix(238.194,0,0,207.181,3.41061e-13,673.734)"><stop offset="0" style="stop-color:#785b55;stop-opacity:1"/><stop offset="1" style="stop-color:#947e70;stop-opacity:1"/></linearGradient></defs></svg>