<?xml version="1.0" encoding="UTF-8" standalone="no"?>
<svg
   width="100%"
   height="100%"
   viewBox="0 0 2500 2500"
   version="1.1"
   xml:space="preserve"
   style="fill-rule:evenodd;clip-rule:evenodd;stroke-linecap:round;stroke-linejoin:round;stroke-miterlimit:1.5;"
   id="svg7"
   sodipodi:docname="icon-source.svg"
   inkscape:export-filename="icon-source.svg"
   inkscape:export-xdpi="96"
   inkscape:export-ydpi="96"
   inkscape:version="1.4.2 (ebf0e940d0, 2025-05-08)"
   xmlns:inkscape="http://www.inkscape.org/namespaces/inkscape"
   xmlns:sodipodi="http://sodipodi.sourceforge.net/DTD/sodipodi-0.dtd"
   xmlns="http://www.w3.org/2000/svg"
   xmlns:svg="http://www.w3.org/2000/svg"
   xmlns:serif="http://www.serif.com/"><defs
     id="defs7"><clipPath
       id="_clip1"><path
         d="m 586.973,340.091 188.932,445.096 c 13.457,31.702 -1.356,68.364 -33.057,81.821 L 474.182,981.05 c -31.702,13.456 -68.364,-1.357 -81.821,-33.058 L 203.429,502.896 c -13.456,-31.701 1.357,-68.364 33.058,-81.82 L 505.153,307.034 c 31.701,-13.456 68.364,1.356 81.82,33.057 z"
         id="path1" /></clipPath></defs><sodipodi:namedview
     id="namedview7"
     pagecolor="#ffffff"
     bordercolor="#000000"
     borderopacity="0.25"
     inkscape:showpageshadow="2"
     inkscape:pageopacity="0.0"
     inkscape:pagecheckerboard="0"
     inkscape:deskcolor="#d1d1d1"
     showgrid="false"
     inkscape:zoom="1.0691455"
     inkscape:cx="1290.7504"
     inkscape:cy="1345.9347"
     inkscape:window-width="3840"
     inkscape:window-height="2093"
     inkscape:window-x="0"
     inkscape:window-y="0"
     inkscape:window-maximized="1"
     inkscape:current-layer="wallet" /><g
     id="icon"
     transform="matrix(0.95072405,0,0,0.87685346,21.196758,39.59443)"><g
       id="wallet"><path
         id="wallet-back"
         d="m 1882.64,805.128 v 1057.73 c 0,70.456 -57.201,127.657 -127.657,127.657 H 626.963 c -70.456,0 -127.657,-57.201 -127.657,-127.657 v -942.23 c 0,-104.006 84.439,-188.446 188.446,-188.446 h 1121.94 c 40.26,0 72.947,32.686 72.947,72.947 z"
         style="fill:#BF904A;stroke:#FFB400;stroke-width:83.33px" /><g
         id="cc"
         transform="matrix(0.99909629,0,0,1.0098407,425.50487,494.28586)"
         style="clip-rule:evenodd;fill-rule:evenodd;stroke-linecap:round;stroke-linejoin:round;stroke-miterlimit:1.5;fill:#afc6e9"><path
           id="cc1"
           serif:id="cc"
           d="m 1157.77,69.836 209.435,493.397 c 24.712,58.218 -2.491,125.548 -60.709,150.26 l -826.19,350.697 c -58.218,24.712 -125.548,-2.491 -150.26,-60.71 L 120.611,510.084 C 95.899,451.865 123.102,384.536 181.32,359.823 L 1007.51,9.127 c 58.219,-24.713 125.548,2.49 150.26,60.709 z"
           style="fill:#1E83F7;fill-opacity:1" /><clipPath
           id="clipPath2"><path
             d="m 586.973,340.091 188.932,445.096 c 13.457,31.702 -1.356,68.364 -33.057,81.821 L 474.182,981.05 c -31.702,13.456 -68.364,-1.357 -81.821,-33.058 L 203.429,502.896 c -13.456,-31.701 1.357,-68.364 33.058,-81.82 L 505.153,307.034 c 31.701,-13.456 68.364,1.356 81.82,33.057 z"
             id="path2" /></clipPath><path
           id="cc1-6"
           serif:id="cc"
           d="m 1396.6156,233.8512 170.6499,581.07577 c 20.1355,68.56356 -19.4627,139.22604 -88.3717,157.697 L 500.9843,1234.7521 c -68.90905,18.471 -141.20339,-22.1985 -161.3388,-90.7633 L 168.99545,562.91426 C 148.85999,494.34959 188.45833,423.68822 257.36746,405.21622 L 1235.2768,143.08909 c 68.9102,-18.47191 141.2036,22.19744 161.3388,90.76211 z"
           style="clip-rule:evenodd;fill:#F44336;fill-opacity:1;fill-rule:evenodd;stroke-width:1.12877;stroke-linecap:round;stroke-linejoin:round;stroke-miterlimit:1.5" /><path
           id="cc1-7"
           serif:id="cc"
           d="m 1549.6503,494.05594 61.6066,665.66236 c 7.269,78.5442 -48.2686,146.7704 -123.943,152.2599 l -1073.92124,77.9043 c -75.6745,5.4893 -143.01565,-53.8229 -150.28443,-132.3684 L 201.50145,591.85278 C 194.23273,513.30734 249.76983,445.08235 325.44471,439.5917 L 1399.3656,361.68886 c 75.676,-5.49021 143.016,53.82166 150.2847,132.36708 z"
           style="clip-rule:evenodd;fill:#18C249;fill-opacity:1;fill-rule:evenodd;stroke-width:1.22307;stroke-linecap:round;stroke-linejoin:round;stroke-miterlimit:1.5" /></g><path
         id="wallet-front"
         d="m 2036.81,1162.62 v 769.565 c 0,55.191 -44.809,100 -100,100 H 595.14 c -55.192,0 -100,-44.809 -100,-100 v -900 h 1411.23 c 71.989,0 130.435,58.446 130.435,130.435 z"
         style="fill:#FFB400" /><path
         d="m 540.912,928.536 c 7.181,28.15 26.77,60.39 57.551,81.387 30.78,20.998 67.945,27.474 96.774,23.889 -36.08,52.89 -99.948,72.245 -142.535,43.193 -42.587,-29.051 -47.87,-95.578 -11.79,-148.469 z"
         style="fill-rule:evenodd;clip-rule:evenodd;stroke-linecap:round;stroke-linejoin:round;stroke-miterlimit:1.5;fill:#FFB400;fill-opacity:1"
         id="path6" /></g></g></svg>
