<?xml version="1.0" encoding="UTF-8" standalone="no"?>
<svg
   width="100%"
   height="100%"
   viewBox="0 0 2500 2500"
   version="1.1"
   xml:space="preserve"
   style="fill-rule:evenodd;clip-rule:evenodd;stroke-linecap:round;stroke-linejoin:round;stroke-miterlimit:1.5;"
   id="svg7"
   sodipodi:docname="icon-source-monochrome.svg"
   inkscape:export-filename="icon-source.svg"
   inkscape:export-xdpi="96"
   inkscape:export-ydpi="96"
   inkscape:version="1.4.2 (ebf0e940d0, 2025-05-08)"
   xmlns:inkscape="http://www.inkscape.org/namespaces/inkscape"
   xmlns:sodipodi="http://sodipodi.sourceforge.net/DTD/sodipodi-0.dtd"
   xmlns="http://www.w3.org/2000/svg"
   xmlns:svg="http://www.w3.org/2000/svg"><defs
     id="defs7"><clipPath
       id="_clip1"><path
         d="m 586.973,340.091 188.932,445.096 c 13.457,31.702 -1.356,68.364 -33.057,81.821 L 474.182,981.05 c -31.702,13.456 -68.364,-1.357 -81.821,-33.058 L 203.429,502.896 c -13.456,-31.701 1.357,-68.364 33.058,-81.82 L 505.153,307.034 c 31.701,-13.456 68.364,1.356 81.82,33.057 z"
         id="path1" /></clipPath></defs><sodipodi:namedview
     id="namedview7"
     pagecolor="#ffffff"
     bordercolor="#000000"
     borderopacity="0.25"
     inkscape:showpageshadow="2"
     inkscape:pageopacity="0.0"
     inkscape:pagecheckerboard="0"
     inkscape:deskcolor="#d1d1d1"
     showgrid="false"
     inkscape:zoom="1.0691455"
     inkscape:cx="926.90845"
     inkscape:cy="836.18179"
     inkscape:window-width="3840"
     inkscape:window-height="2093"
     inkscape:window-x="0"
     inkscape:window-y="0"
     inkscape:window-maximized="1"
     inkscape:current-layer="wallet" /><g
     id="icon"
     transform="matrix(0.95072405,0,0,0.87685346,21.196758,39.59443)"><g
       id="wallet"><path
         d="m 1861.5628,870.53246 53.481,184.06544 h 64.3322 l -5.6207,-61.39448 c -5.3756,-58.71213 -43.6361,-106.78136 -93.8163,-125.54657 z"
         style="fill:#18c249;stroke-width:1.22307"
         id="path112" /><path
         d="M 685.26362,1054.5979 H 1787.9203 l -67.993,-161.90257 z"
         style="fill:#18c249;stroke-width:1.22307"
         id="path108" /><path
         d="m 786.72412,935.55989 -36.06832,2.64396 c -36.38647,2.66843 -68.11349,20.01072 -90.42861,46.12551 z"
         style="fill:#18c249;stroke-width:1.22307"
         id="path107" /><path
         d="M 899.13228,927.31842 635.43317,1028.987 1625.5277,874.05847 Z"
         style="fill:#18c249;stroke-width:1.22307"
         id="path91" /><path
         d="m 1719.9273,892.69533 67.993,161.90257 h 127.1235 l -53.481,-184.06544 z"
         style="fill:#18c249;stroke-width:1.22307"
         id="path110" /><path
         d="m 589.95797,1011.4215 70.26922,-27.09214 c 22.31512,-26.11479 54.04214,-43.45708 90.42861,-46.12551 L 786.72412,935.55989 1312.5733,732.8197 682.64021,903.48943 c -51.6874,14.00449 -86.86842,57.71402 -92.68224,107.93207 z"
         style="fill:#f44336;stroke-width:1.12877"
         id="path104" /><path
         d="M 1618.0621,650.1377 899.13228,927.31842 1625.5277,874.05847 1706.761,861.34656 Z"
         style="fill:#f44336;stroke-width:1.12877"
         id="path89" /><path
         d="m 1618.7914,649.85704 -0.7293,0.28066 88.6989,211.20886 145.5161,-22.77096 -31.4193,-108.13701 c -20.117,-69.2394 -92.345,-110.30999 -161.1929,-91.6563 z"
         style="fill:#f44336;stroke-width:1.12877"
         id="path87" /><path
         d="m 552.86658,1025.7216 37.09139,-14.3001 c 5.81382,-50.21805 40.99484,-93.92758 92.68224,-107.93207 L 1312.5733,732.8197 1605.3765,619.93159 1582.228,564.80952 c -18.5172,-44.09394 -60.9846,-70.57111 -105.6,-70.52472 -14.8718,0.0155 -29.9825,2.97803 -44.5241,9.21708 L 606.66193,857.64903 c -58.16539,24.9562 -85.34451,92.94917 -60.65484,151.74107 z"
         style="fill:#1e83f7"
         id="path102" /><path
         id="wallet-front"
         d="m 2075.1783,1219.1543 v 769.565 c 0,55.191 -44.809,100 -100,100 H 633.50832 c -55.192,0 -100,-44.809 -100,-100 v -900 H 1944.7383 c 71.989,0 130.435,58.446 130.435,130.435 z"
         style="fill:#ffb400" /></g></g></svg>
