<?xml version="1.0" encoding="UTF-8" standalone="no"?>
<svg
   width="100%"
   height="100%"
   viewBox="0 0 2500 2500"
   version="1.1"
   xml:space="preserve"
   style="fill-rule:evenodd;clip-rule:evenodd;stroke-linecap:round;stroke-linejoin:round;stroke-miterlimit:1.5;"
   id="svg7"
   sodipodi:docname="icon-source.svg"
   inkscape:export-filename="icon-source.svg"
   inkscape:export-xdpi="96"
   inkscape:export-ydpi="96"
   inkscape:version="1.4.2 (ebf0e940d0, 2025-05-08)"
   xmlns:inkscape="http://www.inkscape.org/namespaces/inkscape"
   xmlns:sodipodi="http://sodipodi.sourceforge.net/DTD/sodipodi-0.dtd"
   xmlns="http://www.w3.org/2000/svg"
   xmlns:svg="http://www.w3.org/2000/svg"
   xmlns:serif="http://www.serif.com/"><defs
     id="defs7" /><sodipodi:namedview
     id="namedview7"
     pagecolor="#ffffff"
     bordercolor="#000000"
     borderopacity="0.25"
     inkscape:showpageshadow="2"
     inkscape:pageopacity="0.0"
     inkscape:pagecheckerboard="0"
     inkscape:deskcolor="#d1d1d1"
     showgrid="false"
     inkscape:zoom="0.756"
     inkscape:cx="1250"
     inkscape:cy="1250"
     inkscape:window-width="3840"
     inkscape:window-height="2093"
     inkscape:window-x="0"
     inkscape:window-y="0"
     inkscape:window-maximized="1"
     inkscape:current-layer="icon" /><g
     id="icon"
     transform="matrix(0.95072405,0,0,0.87685346,21.196758,39.59443)"><g
       id="wallet"><path
         id="wallet-back"
         d="m 1882.64,805.128 v 1057.73 c 0,70.456 -57.201,127.657 -127.657,127.657 H 626.963 c -70.456,0 -127.657,-57.201 -127.657,-127.657 v -942.23 c 0,-104.006 84.439,-188.446 188.446,-188.446 h 1121.94 c 40.26,0 72.947,32.686 72.947,72.947 z"
         style="fill:#1a5aa0;stroke:#2c79c3;stroke-width:83.33px" /><g
         id="cc"><path
           id="cc1"
           serif:id="cc"
           d="m 1594.58,391.359 209.434,493.396 c 24.713,58.219 -2.49,125.548 -60.709,150.261 l -826.189,350.696 c -58.219,24.713 -125.548,-2.49 -150.261,-60.709 L 557.421,831.607 c -24.712,-58.219 2.49,-125.549 60.709,-150.261 L 1444.319,330.65 c 58.219,-24.713 125.549,2.49 150.261,60.709 z"
           style="fill:#80bae5" /><g
           id="logo"><path
             id="logo1"
             serif:id="logo"
             d="m 1528.3,433.9 91.234,214.932 c 10.765,25.361 -1.085,54.691 -26.446,65.456 l -214.933,91.234 c -25.361,10.765 -54.691,-1.085 -65.456,-26.446 l -91.234,-214.933 c -10.765,-25.361 1.085,-54.691 26.446,-65.456 l 214.933,-91.234 c 25.361,-10.765 54.691,1.085 65.456,26.447 z"
             style="fill:#2f75b8" /><path
             id="dot"
             d="m 1539.89,600.748 16.517,38.911 c 4.427,10.43 -0.446,22.494 -10.877,26.921 l -38.91,16.517 c -10.431,4.427 -22.494,-0.447 -26.922,-10.877 l -16.516,-38.911 c -4.428,-10.43 0.446,-22.494 10.877,-26.921 l 38.91,-16.517 c 10.431,-4.427 22.494,0.447 26.921,10.877 z"
             style="fill:#54a4e0" /><path
             id="dot1"
             serif:id="dot"
             d="m 1411.36,655.307 16.516,38.91 c 4.428,10.431 -0.446,22.494 -10.877,26.922 l -38.91,16.516 c -10.431,4.428 -22.494,-0.446 -26.922,-10.877 l -16.516,-38.91 c -4.428,-10.431 0.446,-22.494 10.877,-26.922 l 38.91,-16.516 c 10.431,-4.428 22.494,0.446 26.922,10.877 z"
             style="fill:#54a4e0" /><path
             id="dot2"
             serif:id="dot"
             d="m 1486.16,474.179 16.516,38.91 c 4.428,10.431 -0.446,22.494 -10.877,26.922 l -38.91,16.516 c -10.431,4.428 -22.494,-0.446 -26.921,-10.877 l -16.517,-38.91 c -4.427,-10.431 0.446,-22.494 10.877,-26.922 l 38.91,-16.516 c 10.431,-4.428 22.494,0.446 26.922,10.877 z"
             style="fill:#54a4e0" /><path
             id="dot3"
             serif:id="dot"
             d="m 1357.63,528.737 16.517,38.911 c 4.427,10.43 -0.447,22.494 -10.877,26.921 l -38.911,16.517 c -10.43,4.427 -22.494,-0.447 -26.921,-10.877 l -16.517,-38.911 c -4.427,-10.43 0.447,-22.494 10.877,-26.921 l 38.911,-16.517 c 10.43,-4.427 22.494,0.447 26.921,10.877 z"
             style="fill:#54a4e0" /></g><path
           id="foto"
           d="m 1023.78,661.614 188.932,445.096 c 13.456,31.702 -1.357,68.364 -33.058,81.821 l -268.666,114.041 c -31.701,13.457 -68.364,-1.356 -81.82,-33.057 L 640.236,824.419 c -13.457,-31.702 1.356,-68.364 33.057,-81.82 L 941.959,628.557 c 31.702,-13.457 68.364,1.356 81.821,33.057 z"
           style="fill:#4a95d5" /><clipPath
           id="_clip1"><path
             d="m 1023.78,661.614 188.932,445.096 c 13.456,31.702 -1.357,68.364 -33.058,81.821 l -268.666,114.041 c -31.701,13.457 -68.364,-1.356 -81.82,-33.057 L 640.236,824.419 c -13.457,-31.702 1.356,-68.364 33.057,-81.82 L 941.959,628.557 c 31.702,-13.457 68.364,1.356 81.821,33.057 z"
             id="path1" /></clipPath><g
           clip-path="url(#_clip1)"
           id="g3"><path
             d="m 838.087,763.294 c 42.337,-17.971 91.299,1.811 109.27,44.148 17.97,42.337 -1.811,91.299 -44.148,109.269 -42.337,17.971 -91.299,-1.811 -109.27,-44.147 -17.971,-42.337 1.811,-91.299 44.148,-109.27 z"
             style="fill:#80bae5"
             id="path2" /><path
             d="m 1128.4,1151.71 -212.581,90.236 c -22.135,-22.197 -40.696,-50.156 -53.817,-81.066 -41.253,-97.188 -19.751,-199.436 47.988,-228.189 67.739,-28.753 156.227,26.806 197.48,123.994 13.121,30.91 20.339,63.684 20.93,95.025 z"
             style="fill:#80bae5"
             id="path3" /></g><path
           id="brand"
           d="m 1686.17,805.82 15.966,37.613 c 1.884,4.438 -0.19,9.571 -4.628,11.455 l -290.752,123.417 c -4.438,1.884 -9.571,-0.19 -11.455,-4.628 l -15.966,-37.613 c -1.884,-4.439 0.19,-9.571 4.628,-11.455 l 290.752,-123.417 c 4.438,-1.884 9.571,0.19 11.455,4.628 z"
           style="fill:#3585cc" /></g><path
         id="wallet-front"
         d="m 2036.81,1162.62 v 769.565 c 0,55.191 -44.809,100 -100,100 H 595.14 c -55.192,0 -100,-44.809 -100,-100 v -900 h 1411.23 c 71.989,0 130.435,58.446 130.435,130.435 z"
         style="fill:#2d7cc7" /><path
         d="m 2036.81,1162.62 v 769.565 c 0,55.191 -44.809,100 -100,100 H 595.14 c -55.192,0 -100,-44.809 -100,-100 v -900 h 1411.23 c 71.989,0 130.435,58.446 130.435,130.435 z m -83.334,0 c 0,-25.996 -21.105,-47.102 -47.101,-47.102 h -1327.9 v 816.667 c 0,9.199 7.468,16.667 16.667,16.667 h 1341.67 c 9.198,0 16.666,-7.468 16.666,-16.667 V 1162.62 Z"
         style="fill:#50a2df"
         id="path4" /><path
         id="wallet-front1"
         serif:id="wallet-front"
         d="m 1953.47,1207.18 v 758.575 c 0,36.661 -29.764,66.425 -66.425,66.425 H 586.805 c -50.593,0 -91.667,-41.075 -91.667,-91.667 v -825 h 1366.67 c 50.592,0 91.666,41.075 91.666,91.667 z"
         style="fill:#2d7cc7" /></g><path
       d="m 499.306,962.524 v 335.161"
       style="fill:none;stroke:#2d7cc7;stroke-width:83.33px"
       id="path5" /><path
       d="m 540.912,928.536 c 7.181,28.15 26.77,60.39 57.551,81.387 30.78,20.998 67.945,27.474 96.774,23.889 -36.08,52.89 -99.948,72.245 -142.535,43.193 -42.587,-29.051 -47.87,-95.578 -11.79,-148.469 z"
       style="fill:#50a2df"
       id="path6" /><path
       d="m 542.419,928.536 c -1.449,45.168 20.796,102.147 66.184,141.504 45.389,39.357 104.945,53.307 149.452,45.474 -57.307,66.091 -152.145,77.857 -211.651,26.259 -59.507,-51.598 -61.292,-147.146 -3.985,-213.237 z"
       style="fill:#2d7cc7"
       id="path7" /></g></svg>
