<?xml version="1.0" encoding="UTF-8" standalone="no"?>
<svg width="100%" height="100%" viewBox="0 0 2500 2500" version="1.1" xml:space="preserve" style="fill-rule:evenodd;clip-rule:evenodd;stroke-linecap:round;stroke-linejoin:round;stroke-miterlimit:1.5;"
    id="svg7" sodipodi:docname="icon-source.svg" inkscape:export-filename="icon-source.svg"
    inkscape:export-xdpi="96" inkscape:export-ydpi="96" inkscape:version="1.4.2 (ebf0e940d0, 2025-05-08)"
    xmlns:inkscape="http://www.inkscape.org/namespaces/inkscape" xmlns:sodipodi="http://sodipodi.sourceforge.net/DTD/sodipodi-0.dtd"
    xmlns="http://www.w3.org/2000/svg" xmlns:serif="http://www.serif.com/"><defs
     id="defs7"><clipPath
       id="_clip1"><path
         d="m 586.973,340.091 188.932,445.096 c 13.457,31.702 -1.356,68.364 -33.057,81.821 L 474.182,981.05 c -31.702,13.456 -68.364,-1.357 -81.821,-33.058 L 203.429,502.896 c -13.456,-31.701 1.357,-68.364 33.058,-81.82 L 505.153,307.034 c 31.701,-13.456 68.364,1.356 81.82,33.057 z"
         id="path1" /></clipPath></defs><sodipodi:namedview
     id="namedview7"
     pagecolor="#ffffff"
     bordercolor="#000000"
     borderopacity="0.25"
     inkscape:showpageshadow="2"
     inkscape:pageopacity="0.0"
     inkscape:pagecheckerboard="0"
     inkscape:deskcolor="#d1d1d1"
     showgrid="false"
     inkscape:zoom="1.0691455"
     inkscape:cx="1290.7505"
     inkscape:cy="1345.9347"
     inkscape:window-width="3840"
     inkscape:window-height="2093"
     inkscape:window-x="0"
     inkscape:window-y="0"
     inkscape:window-maximized="1"
     inkscape:current-layer="wallet" /><g
     id="icon"
     transform="matrix(0.95072405,0,0,0.87685346,21.196758,39.59443)"><g
       id="wallet"><path
         id="wallet-back"
         d="m 1882.64,805.128 v 1057.73 c 0,70.456 -57.201,127.657 -127.657,127.657 H 626.963 c -70.456,0 -127.657,-57.201 -127.657,-127.657 v -942.23 c 0,-104.006 84.439,-188.446 188.446,-188.446 h 1121.94 c 40.26,0 72.947,32.686 72.947,72.947 z"
         style="fill:#BF904A;stroke:#FFB400;stroke-width:83.33px" /><g
         id="cc"
         transform="matrix(0.99909629,0,0,1.0098407,425.50487,494.28586)"
         style="clip-rule:evenodd;fill-rule:evenodd;stroke-linecap:round;stroke-linejoin:round;stroke-miterlimit:1.5;fill:#afc6e9"><path
           id="cc1"
           serif:id="cc"
           d="m 1157.77,69.836 209.435,493.397 c 24.712,58.218 -2.491,125.548 -60.709,150.26 l -826.19,350.697 c -58.218,24.712 -125.548,-2.491 -150.26,-60.71 L 120.611,510.084 C 95.899,451.865 123.102,384.536 181.32,359.823 L 1007.51,9.127 c 58.219,-24.713 125.548,2.49 150.26,60.709 z"
           style="fill:#1E83F7;fill-opacity:1" /><clipPath
           id="clipPath2"><path
             d="m 586.973,340.091 188.932,445.096 c 13.457,31.702 -1.356,68.364 -33.057,81.821 L 474.182,981.05 c -31.702,13.456 -68.364,-1.357 -81.821,-33.058 L 203.429,502.896 c -13.456,-31.701 1.357,-68.364 33.058,-81.82 L 505.153,307.034 c 31.701,-13.456 68.364,1.356 81.82,33.057 z"
             id="path2" /></clipPath><path
           id="cc1-6"
           serif:id="cc"
           d="m 1396.6156,233.8512 170.6499,581.07577 c 20.1355,68.56356 -19.4627,139.22604 -88.3717,157.697 L 500.9843,1234.7521 c -68.90905,18.471 -141.20339,-22.1985 -161.3388,-90.7633 L 168.99545,562.91426 C 148.85999,494.34959 188.45833,423.68822 257.36746,405.21622 L 1235.2768,143.08909 c 68.9102,-18.47191 141.2036,22.19744 161.3388,90.76211 z"
           style="clip-rule:evenodd;fill:#F44336;fill-opacity:1;fill-rule:evenodd;stroke-width:1.12877;stroke-linecap:round;stroke-linejoin:round;stroke-miterlimit:1.5" /><path
           id="cc1-7"
           serif:id="cc"
           d="m 1549.6503,494.05594 61.6066,665.66236 c 7.269,78.5442 -48.2686,146.7704 -123.943,152.2599 l -1073.92124,77.9043 c -75.6745,5.4893 -143.01565,-53.8229 -150.28443,-132.3684 L 201.50145,591.85278 C 194.23273,513.30734 249.76983,445.08235 325.44471,439.5917 L 1399.3656,361.68886 c 75.676,-5.49021 143.016,53.82166 150.2847,132.36708 z"
           style="clip-rule:evenodd;fill:#18C249;fill-opacity:1;fill-rule:evenodd;stroke-width:1.22307;stroke-linecap:round;stroke-linejoin:round;stroke-miterlimit:1.5" /></g><path
         id="wallet-front"
         d="m 2036.81,1162.62 v 769.565 c 0,55.191 -44.809,100 -100,100 H 595.14 c -55.192,0 -100,-44.809 -100,-100 v -900 h 1411.23 c 71.989,0 130.435,58.446 130.435,130.435 z"
         style="fill:#FFB400" /><path
         d="m 2036.81,1162.62 v 769.565 c 0,55.191 -44.809,100 -100,100 H 595.14 c -55.192,0 -100,-44.809 -100,-100 v -900 h 1411.23 c 71.989,0 130.435,58.446 130.435,130.435 z m -83.334,0 c 0,-25.996 -21.105,-47.102 -47.101,-47.102 h -1327.9 v 816.667 c 0,9.199 7.468,16.667 16.667,16.667 h 1341.67 c 9.198,0 16.666,-7.468 16.666,-16.667 V 1162.62 Z"
         style="fill:#FFB400;fill-opacity:1"
         id="path4" /><path
         id="wallet-front1"
         serif:id="wallet-front"
         d="m 1953.47,1207.18 v 758.575 c 0,36.661 -29.764,66.425 -66.425,66.425 H 586.805 c -50.593,0 -91.667,-41.075 -91.667,-91.667 v -825 h 1366.67 c 50.592,0 91.666,41.075 91.666,91.667 z"
         style="fill:#FFB400;fill-opacity:1" /><path
         style="fill:#FFB400;fill-opacity:1;stroke-width:1.09143"
         d="m 1913.9291,2025.2681 c 12.3024,-6.6009 24.855,-19.982 30.6779,-32.703 l 4.4028,-9.6186 0.5393,-410.9979 c 0.6057,-461.345 1.9081,-421.6641 -14.3451,-437.0681 -4.7239,-4.4771 -12.0644,-9.2614 -16.3121,-10.6317 -5.8466,-1.886 -154.2933,-2.4914 -610.9303,-2.4914 -654.20332,0 -611.33549,0.749 -643.80029,-11.2482 -60.56595,-22.3814 -107.10309,-75.4447 -121.12357,-138.10937 -5.34744,-23.9004 -4.72412,-25.38108 3.5674,-8.47418 9.96649,20.32229 35.98738,48.27265 54.59269,58.64085 7.5753,4.2214 19.84314,9.6761 27.26188,12.1215 l 13.48862,4.446 628.93567,0.018 c 405.9278,0.011 635.0173,0.7676 646.0874,2.1334 61.0268,7.5289 106.6266,53.2913 113.7995,114.2052 1.1431,9.7075 1.8132,166.6548 1.7055,399.4783 -0.1432,309.3375 -0.6802,385.9867 -2.7773,396.4079 -3.8183,18.9747 -11.7943,34.1551 -25.6226,48.7675 -20.6003,21.7682 -43.0171,30.47 -78.4939,30.47 h -21.6167 z"
         id="path3" /><path
         style="fill:#FFB400;fill-opacity:1;stroke-width:1.87065"
         d="m 605.1562,980.47864 c -31.75638,-23.61053 -54.85301,-57.94962 -63.71214,-94.72451 -4.93038,-20.46635 -4.5008,-22.36322 2.2479,-9.92588 23.45172,43.2198 68.3175,70.15756 118.7169,71.27856 l 17.03363,0.37886 -2.94558,4.50561 c -7.59365,11.6154 -46.51838,37.6459 -56.15916,37.55585 -1.66227,-0.0155 -8.49397,-4.09635 -15.18155,-9.06849 z"
         id="path8"
         transform="matrix(1.0518299,0,0,1.1404414,-22.295384,-45.155128)" /><path
         style="fill:#FFB400;fill-opacity:1;stroke-width:0.330688"
         d="m 690.80688,1017.2859 c -0.54564,-0.078 -3.28019,-0.5775 -6.07679,-1.1104 -62.82368,-11.9704 -113.57085,-51.70302 -136.76262,-107.07865 -6.26222,-14.95248 -9.99395,-31.00502 -10.88617,-46.82833 l -0.16781,-2.97619 1.26863,3.34624 c 4.94629,13.04673 12.81981,26.09156 22.52272,37.31562 3.94262,4.56072 12.62366,12.97772 16.96984,16.45369 16.67634,13.33737 36.75843,22.69123 58.73405,27.35724 12.66293,2.68868 27.62476,3.83538 39.29621,3.01174 3.15226,-0.22245 5.78425,-0.3516 5.84886,-0.28699 0.27886,0.27886 -6.19741,7.91911 -10.35582,12.21705 -13.61215,14.06891 -29.96027,24.74605 -47.0247,30.71236 -1.72784,0.60411 -3.26416,1.20423 -3.41403,1.3336 -0.66022,0.56993 15.57914,9.03635 24.27586,12.65632 8.16835,3.3999 22.30016,8.3598 26.42653,9.2748 8.25296,1.8302 19.98701,2.7853 43.15476,3.5125 12.03383,0.3778 52.50659,1.0025 71.42857,1.1025 7.27514,0.038 -10.95403,0.083 -40.50925,0.099 -29.55523,0.016 -54.18321,-0.034 -54.72884,-0.1122 z"
         id="path9"
         transform="matrix(1.0518299,0,0,1.1404414,-22.295384,-45.155128)" /><path
         style="fill:#FFB400;fill-opacity:1;stroke-width:0.330688"
         d="m 616.08923,989.25454 c -27.04836,-16.98148 -49.88409,-42.24131 -63.67869,-70.4384 -9.31712,-19.04485 -14.18711,-37.0012 -15.33642,-56.54762 l -0.17499,-2.97619 1.79677,4.5485 c 10.37657,26.26807 30.68013,49.54912 55.88082,64.07566 23.81506,13.72781 54.59077,20.7993 81.86025,18.80942 2.74386,-0.20022 5.04406,-0.30881 5.11156,-0.24131 0.28336,0.28335 -6.15492,7.88591 -10.35055,12.22232 -13.84576,14.31036 -29.87268,24.70415 -47.79045,30.99309 -2.14901,0.75428 -4.02362,1.37142 -4.16581,1.37142 -0.14219,0 -1.56081,-0.8176 -3.15249,-1.81689 z"
         id="path10"
         transform="matrix(1.0518299,0,0,1.1404414,-22.295384,-45.155128)" /><path
         style="fill:#FFB400;fill-opacity:1;stroke-width:0.330688"
         d="m 616.08923,989.25454 c -27.04836,-16.98148 -49.88409,-42.24131 -63.67869,-70.4384 -9.31693,-19.04446 -14.2019,-37.05845 -15.33436,-56.54762 l -0.17294,-2.97619 1.94906,4.88444 c 5.98198,14.99113 15.43879,29.39117 27.27903,41.53821 12.52379,12.8483 26.43474,22.35561 43.08688,29.4473 20.60133,8.77355 45.38785,13.10351 66.48673,11.61458 3.15226,-0.22245 5.78425,-0.3516 5.84886,-0.28699 0.27886,0.27886 -6.19741,7.91911 -10.35582,12.21705 -13.84576,14.31036 -29.87268,24.70415 -47.79045,30.99309 -2.14901,0.75428 -4.02362,1.37142 -4.16581,1.37142 -0.14219,0 -1.56081,-0.8176 -3.15249,-1.81689 z"
         id="path11"
         transform="matrix(1.0518299,0,0,1.1404414,-22.295384,-45.155128)" /><path
         style="fill:#FFB400;fill-opacity:1;stroke-width:0.330688"
         d="M 616.08923,989.25454 C 576.25914,964.24844 547.0291,922.49983 539.042,879.20972 c -1.19108,-6.45566 -2.57435,-20.99535 -1.83197,-19.25602 0.15526,0.36376 0.97892,2.44709 1.83036,4.62963 5.68145,14.56363 15.11311,28.85142 27.26135,41.29752 15.19681,15.56944 32.69818,26.40026 54.06863,33.46068 18.5232,6.11973 38.08669,8.69639 56.0666,7.38438 2.74386,-0.20022 5.04406,-0.30881 5.11156,-0.24131 0.28336,0.28335 -6.15492,7.88591 -10.35055,12.22232 -13.84576,14.31036 -29.87268,24.70415 -47.79045,30.99309 -2.14901,0.75428 -4.02362,1.37142 -4.16581,1.37142 -0.14219,0 -1.56081,-0.8176 -3.15249,-1.81689 z"
         id="path12"
         transform="matrix(1.0518299,0,0,1.1404414,-22.295384,-45.155128)" /><path
         style="fill:#FFB400;fill-opacity:1;stroke-width:0.330688"
         d="M 616.08923,989.25454 C 576.25914,964.24844 547.0291,922.49983 539.042,879.20972 c -1.19916,-6.49945 -2.5715,-20.96806 -1.82643,-19.25602 0.15831,0.36376 0.96863,2.43403 1.80071,4.60059 5.476,14.25832 15.17033,28.94425 27.27801,41.32343 15.2835,15.6262 32.69133,26.39866 54.07608,33.46381 18.5232,6.11973 38.08669,8.69639 56.0666,7.38438 2.74386,-0.20022 5.04406,-0.30881 5.11156,-0.24131 0.28336,0.28335 -6.15492,7.88591 -10.35055,12.22232 -13.84576,14.31036 -29.87268,24.70415 -47.79045,30.99309 -2.14901,0.75428 -4.02362,1.37142 -4.16581,1.37142 -0.14219,0 -1.56081,-0.8176 -3.15249,-1.81689 z"
         id="path13"
         transform="matrix(1.0518299,0,0,1.1404414,-22.295384,-45.155128)" /><path
         style="fill:#FFB400;fill-opacity:1;stroke-width:0.330688"
         d="m 616.08923,989.25454 c -27.04836,-16.98148 -49.88409,-42.24131 -63.67869,-70.4384 -9.31668,-19.04395 -14.2237,-37.14287 -15.3313,-56.54762 l -0.16987,-2.97619 1.89775,4.79497 c 6.07368,15.34611 15.21268,29.24069 27.48717,41.79042 15.2835,15.6262 32.69133,26.39866 54.07608,33.46381 18.5232,6.11973 38.08669,8.69639 56.0666,7.38438 2.74386,-0.20022 5.04406,-0.30881 5.11156,-0.24131 0.28336,0.28335 -6.15492,7.88591 -10.35055,12.22232 -13.84576,14.31036 -29.87268,24.70415 -47.79045,30.99309 -2.14901,0.75428 -4.02362,1.37142 -4.16581,1.37142 -0.14219,0 -1.56081,-0.8176 -3.15249,-1.81689 z"
         id="path14"
         transform="matrix(1.0518299,0,0,1.1404414,-22.295384,-45.155128)" /><path
         style="fill:#FFB400;fill-opacity:1;stroke-width:0.330688"
         d="m 616.08923,989.25454 c -27.04836,-16.98148 -49.88409,-42.24131 -63.67869,-70.4384 -9.31668,-19.04395 -14.2237,-37.14287 -15.3313,-56.54762 l -0.16987,-2.97619 1.89775,4.79497 c 6.07368,15.34611 15.21268,29.24069 27.48717,41.79042 15.2835,15.6262 32.69133,26.39866 54.07608,33.46381 18.5232,6.11973 38.08669,8.69639 56.0666,7.38438 2.74386,-0.20022 5.04406,-0.30881 5.11156,-0.24131 0.28336,0.28335 -6.15492,7.88591 -10.35055,12.22232 -13.84576,14.31036 -29.87268,24.70415 -47.79045,30.99309 -2.14901,0.75428 -4.02362,1.37142 -4.16581,1.37142 -0.14219,0 -1.56081,-0.8176 -3.15249,-1.81689 z"
         id="path15"
         transform="matrix(1.0518299,0,0,1.1404414,-22.295384,-45.155128)" /><path
         style="fill:#FFB400;fill-opacity:1;stroke-width:0.330688"
         d="m 616.08923,989.25454 c -27.04836,-16.98148 -49.88409,-42.24131 -63.67869,-70.4384 -9.31668,-19.04395 -14.2237,-37.14287 -15.3313,-56.54762 l -0.16987,-2.97619 1.89775,4.79497 c 6.07368,15.34611 15.21268,29.24069 27.48717,41.79042 15.2835,15.6262 32.69133,26.39866 54.07608,33.46381 18.5232,6.11973 38.08669,8.69639 56.0666,7.38438 2.74386,-0.20022 5.04406,-0.30881 5.11156,-0.24131 0.28336,0.28335 -6.15492,7.88591 -10.35055,12.22232 -13.84576,14.31036 -29.87268,24.70415 -47.79045,30.99309 -2.14901,0.75428 -4.02362,1.37142 -4.16581,1.37142 -0.14219,0 -1.56081,-0.8176 -3.15249,-1.81689 z"
         id="path16"
         transform="matrix(1.0518299,0,0,1.1404414,-22.295384,-45.155128)" /><path
         style="fill:#FFB400;fill-opacity:1;stroke-width:0.330688"
         d="m 616.08923,989.25454 c -27.04836,-16.98148 -49.88409,-42.24131 -63.67869,-70.4384 -9.31668,-19.04395 -14.2237,-37.14287 -15.3313,-56.54762 l -0.16987,-2.97619 1.89775,4.79497 c 6.07368,15.34611 15.21268,29.24069 27.48717,41.79042 15.2835,15.6262 32.69133,26.39866 54.07608,33.46381 18.5232,6.11973 38.08669,8.69639 56.0666,7.38438 2.74386,-0.20022 5.04406,-0.30881 5.11156,-0.24131 0.28336,0.28335 -6.15492,7.88591 -10.35055,12.22232 -13.84576,14.31036 -29.87268,24.70415 -47.79045,30.99309 -2.14901,0.75428 -4.02362,1.37142 -4.16581,1.37142 -0.14219,0 -1.56081,-0.8176 -3.15249,-1.81689 z"
         id="path17"
         transform="matrix(1.0518299,0,0,1.1404414,-22.295384,-45.155128)" /></g><path
       d="m 499.306,962.524 v 335.161"
       style="fill:none;stroke:#FFB400;stroke-width:83.33px"
       id="path5" /><path
       d="m 540.912,928.536 c 7.181,28.15 26.77,60.39 57.551,81.387 30.78,20.998 67.945,27.474 96.774,23.889 -36.08,52.89 -99.948,72.245 -142.535,43.193 -42.587,-29.051 -47.87,-95.578 -11.79,-148.469 z"
       style="fill:#FFB400;fill-opacity:1"
       id="path6" /><path
       d="m 542.419,928.536 c -1.449,45.168 20.796,102.147 66.184,141.504 45.389,39.357 104.945,53.307 149.452,45.474 -57.307,66.091 -152.145,77.857 -211.651,26.259 -59.507,-51.598 -61.292,-147.146 -3.985,-213.237 z"
       style="fill:#FFB400"
       id="path7" /></g></svg>
